<?xml version="1.0" encoding="UTF-8"?>
<svg id="a" data-name="Layer 1" xmlns="http://www.w3.org/2000/svg" width="1998.201" height="1692.752" viewBox="0 0 1998.201 1692.752">
  <g>
    <g>
      <rect x="706.43" y="302.864" width="10.52" height="77.609"/>
      <rect x="762.727" y="302.864" width="10.52" height="77.609"/>
      <polygon points="570.589 383.141 578.402 376.909 550.44 341.855 578.402 306.802 570.589 300.57 544.047 333.843 517.505 300.57 509.693 306.802 537.655 341.855 509.693 376.909 517.505 383.141 544.047 349.869 570.589 383.141"/>
      <polygon points="476.453 300.39 449.911 333.663 423.369 300.39 415.557 306.623 443.519 341.676 415.557 376.729 423.369 382.961 449.911 349.689 476.453 382.961 484.266 376.729 456.303 341.676 484.266 306.623 476.453 300.39"/>
      <polygon points="632.362 380.473 642.387 380.473 678.095 304.547 669.054 300.295 637.379 367.647 605.824 300.573 596.783 304.825 632.362 380.473"/>
    </g>
    <g>
      <rect x="739.352" y="1182.139" width="10.52" height="77.609"/>
      <rect x="795.649" y="1182.139" width="10.52" height="77.609"/>
      <polygon points="603.511 1262.415 611.324 1256.183 583.362 1221.13 611.324 1186.077 603.511 1179.845 576.969 1213.117 550.427 1179.845 542.615 1186.077 570.577 1221.13 542.615 1256.183 550.427 1262.415 576.969 1229.143 603.511 1262.415"/>
      <polygon points="665.284 1259.748 675.309 1259.748 711.017 1183.821 701.975 1179.569 670.301 1246.922 638.746 1179.847 629.705 1184.1 665.284 1259.748"/>
    </g>
    <g>
      <path d="M515.742,812.238v-216.187h18.992v200.127h19.458v16.06h-38.45Z"/>
      <path d="M580.963,812.238l19.302-216.187h23.936l19.458,216.187h-19.304l-2.932-41.384h-18.84l-3.242,41.384h-18.377Zm22.39-55.9h16.987l-4.016-61.304c-1.235-19.148-2.007-35.825-2.778-63.313h-3.088c-.774,27.488-1.699,44.165-2.935,63.313l-4.17,61.304Z"/>
      <path d="M679.697,812.238v-200.282h-19.458v-15.905h57.754v15.905h-19.458v200.282h-18.838Z"/>
      <path d="M761.69,812.238l-18.994-216.187h19.455l7.568,116.896c1.235,19.302,2.007,35.979,2.624,63.621h2.935c.771-27.642,1.543-44.319,2.778-63.621l7.566-116.896h18.53l-18.53,216.187h-23.933Z"/>
      <path d="M834.792,812.238v-216.187h18.994v216.187h-18.994Z"/>
      <path d="M889.205,812.238v-216.187h40.61v15.905h-21.616v75.974h18.374v15.442h-18.374v92.806h23.162v16.06h-42.156Z"/>
      <path d="M959.062,777.804v-35.98l18.53-4.169v42.002c0,13.279,2.935,19.766,9.265,19.766,6.177,0,9.265-6.487,9.265-19.766,0-16.523-4.941-36.135-14.36-63.931l-9.575-27.795c-9.419-27.64-12.817-46.016-12.817-61.457,0-22.391,8.804-32.429,26.56-32.429,17.913,0,26.253,10.038,26.253,31.039v34.435l-18.223,4.016v-39.841c0-10.19-2.778-14.978-8.337-14.978s-8.34,4.788-8.34,14.978c0,14.207,2.935,30.421,12.354,57.754l9.729,27.64c9.575,27.333,14.978,49.723,14.978,68.717,0,24.552-8.955,36.443-27.795,36.443-18.066,0-27.485-11.891-27.485-36.443Zm48.179-224.989l-11.89,31.193h-18.53l-11.892-31.193h13.589l7.566,16.986,7.568-16.986h13.589Z"/>
      <path d="M1047.293,783.053v-187.001h18.994v186.693c0,12.043,2.624,16.522,8.801,16.522,6.331,0,8.801-4.479,8.801-16.522v-186.693h18.838v187.001c0,22.083-8.647,31.194-27.639,31.194s-27.795-9.111-27.795-31.194Z"/>
    </g>
    <g>
      <path d="M299.21,1105.35v-216.187h26.406c20.381,0,29.802,11.736,29.802,35.208v146.079c0,23.164-9.422,34.9-29.802,34.9h-26.406Zm18.994-15.596h6.331c8.647,0,12.043-6.177,12.043-18.994v-146.543c0-13.281-3.396-19.612-12.043-19.612h-6.331v185.149Z"/>
      <path d="M383.427,1105.35v-12.507l27.332-170.789c.925-5.249,2.161-11.272,3.396-16.06l-.771-1.543c-4.17,.154-6.484,.154-10.347,.154h-16.985v-15.442h46.479v12.354l-27.178,171.404c-.925,5.405-2.007,10.347-3.396,15.598l.771,1.389c3.399-.154,5.559-.154,8.801-.154h22.546v15.596h-50.649Z"/>
      <path d="M464.713,1105.35v-216.187h18.992v216.187h-18.992Z"/>
      <path d="M519.126,1105.35v-216.187h40.613v15.906h-21.621v75.974h18.377v15.442h-18.377v92.805h23.164v16.06h-42.156Z"/>
      <path d="M588.983,1070.914v-35.979l18.53-4.17v42.002c0,13.281,2.932,19.766,9.265,19.766,6.177,0,9.265-6.484,9.265-19.766,0-16.521-4.941-36.133-14.363-63.928l-9.573-27.795c-9.419-27.642-12.817-46.018-12.817-61.46,0-22.39,8.801-32.427,26.56-32.427,17.913,0,26.253,10.037,26.253,31.038v34.436l-18.223,4.014v-39.839c0-10.193-2.778-14.978-8.337-14.978s-8.34,4.785-8.34,14.978c0,14.207,2.935,30.42,12.354,57.751l9.729,27.642c9.573,27.332,14.978,49.722,14.978,68.716,0,24.553-8.955,36.443-27.795,36.443-18.066,0-27.485-11.89-27.485-36.443Z"/>
      <path d="M677.214,1105.35v-216.187h30.574l11.89,115.659c1.699,16.37,3.091,36.599,4.48,67.637h2.778c1.389-31.038,2.781-51.267,4.634-67.327l12.2-115.969h31.191v216.187h-18.838l.154-105.469c.154-22.544,.771-45.554,2.471-77.363l-2.935-.31-19.766,183.142h-21.311l-18.53-183.142-3.086,.156c1.389,31.655,1.85,54.973,1.85,77.517l.156,105.469h-17.913Z"/>
      <path d="M810.541,1076.166v-187.002h18.994v186.692c0,12.046,2.624,16.523,8.801,16.523,6.331,0,8.801-4.477,8.801-16.523v-186.692h18.838v187.002c0,22.083-8.647,31.191-27.639,31.191s-27.795-9.109-27.795-31.191Z"/>
      <path d="M944.23,1076.166v-187.002h18.994v186.692c0,12.046,2.624,16.523,8.801,16.523,6.331,0,8.801-4.477,8.801-16.523v-186.692h18.838v187.002c0,22.083-8.647,31.191-27.639,31.191s-27.795-9.109-27.795-31.191Z"/>
      <path d="M1035.245,1105.35v-216.187h27.332l16.677,129.712c1.699,12.971,3.706,29.495,5.713,50.339l3.088-.308c-1.853-23.779-3.396-55.591-3.396-78.445l-.31-101.299h18.377v216.187h-26.25l-17.605-131.257c-1.853-13.896-3.242-26.557-5.559-50.029l-3.088,.308c1.545,22.39,3.088,55.283,3.088,75.203l.308,105.776h-18.374Z"/>
    </g>
    <g>
      <path d="M896.717,1398.481v-216.187h26.406c20.381,0,29.802,11.736,29.802,35.208v146.082c0,23.162-9.422,34.897-29.802,34.897h-26.406Zm18.994-15.596h6.331c8.647,0,12.043-6.177,12.043-18.994v-146.543c0-13.281-3.396-19.612-12.043-19.612h-6.331v185.149Z"/>
      <path d="M987.779,1398.481v-216.187h40.613v15.906h-21.621v75.974h18.377v15.442h-18.377v92.805h23.164v16.06h-42.156Z"/>
      <path d="M1137.639,1369.296v-187.002h18.992v186.692c0,12.046,2.627,16.523,8.804,16.523,6.331,0,8.801-4.477,8.801-16.523v-186.692h18.84v187.002c0,22.08-8.647,31.191-27.642,31.191s-27.795-9.111-27.795-31.191Z"/>
      <path d="M1106.43,1182.226h-39.075v15.906h20.235v172.026c0,10.193-2.778,15.134-9.109,15.134-6.177,0-8.801-4.941-8.801-15.134v-33.201l-18.994,4.17v29.185c0,20.23,8.801,30.112,27.795,30.112,19.148,0,27.949-9.883,27.949-30.112v-188.081h0v-.005Z"/>
    </g>
    <g>
      <path d="M1299.434,1267.687c-9.419-27.331-12.354-43.545-12.354-57.751,0-10.193,2.781-14.981,8.34-14.981s8.337,4.788,8.337,14.981v39.839l18.223-4.014v-34.436c0-21.001-8.34-31.038-26.253-31.038-17.759,0-26.56,10.037-26.56,32.427,0,15.442,3.399,33.818,12.817,61.46l9.573,27.795c9.422,27.795,14.363,47.405,14.363,63.928,0,13.281-3.088,19.766-9.265,19.766-6.333,0-9.265-6.484-9.265-19.766v-42.002l-18.53,4.17v35.979c0,24.553,9.419,36.443,27.485,36.443,18.84,0,27.795-11.89,27.795-36.443,0-18.992-5.405-41.384-14.978-68.716l-9.729-27.642Z"/>
      <path d="M1385.074,1299.188c-1.235,19.302-2.007,35.982-2.778,63.621h-2.935c-.618-27.639-1.389-44.319-2.624-63.621l-7.566-116.894h-19.458l18.994,216.186h23.936l18.53-216.186h-18.53l-7.568,116.894Z"/>
      <polygon points="1459.091 1289.616 1477.468 1289.616 1477.468 1274.174 1459.091 1274.174 1459.091 1198.2 1480.712 1198.2 1480.712 1182.294 1440.1 1182.294 1440.1 1398.48 1482.255 1398.48 1482.255 1382.421 1459.091 1382.421 1459.091 1289.616"/>
      <rect x="1440.407" y="1156.198" width="41.541" height="15.286"/>
      <polygon points="1508.341 1198.2 1527.799 1198.2 1527.799 1398.48 1546.637 1398.48 1546.637 1198.2 1566.095 1198.2 1566.095 1182.294 1508.341 1182.294 1508.341 1198.2"/>
      <path d="M1636.844,1182.294l-24.246,95.122-2.624-.308c2.935-26.716,3.86-42.776,3.86-63.313v-31.501h-18.992v216.186h18.992v-93.423l7.722-24.553,14.36,117.976h18.994l-20.537-141.294,20.537-74.892h-18.066Z"/>
      <rect x="1683.711" y="1182.294" width="18.994" height="216.186"/>
    </g>
    <g>
      <g>
        <path d="M878.397,519.042l-18.994-216.187h19.458l7.566,116.896c1.235,19.302,2.007,35.979,2.624,63.621h2.935c.771-27.642,1.543-44.319,2.778-63.621l7.568-116.896h18.53l-18.53,216.187h-23.936Z"/>
        <path d="M951.496,519.042v-216.187h18.994v216.187h-18.994Z"/>
        <path d="M1003.441,484.607v-35.98l18.53-4.169v42.002c0,13.279,2.932,19.766,9.265,19.766,6.177,0,9.265-6.487,9.265-19.766,0-16.523-4.941-36.135-14.363-63.931l-9.573-27.795c-9.419-27.64-12.817-46.016-12.817-61.457,0-22.391,8.801-32.429,26.56-32.429,17.913,0,26.253,10.038,26.253,31.039v34.435l-18.223,4.016v-39.841c0-10.19-2.778-14.978-8.337-14.978s-8.34,4.788-8.34,14.978c0,14.207,2.935,30.421,12.354,57.754l9.729,27.64c9.573,27.333,14.978,49.723,14.978,68.717,0,24.552-8.955,36.443-27.795,36.443-18.066,0-27.485-11.891-27.485-36.443Z"/>
        <path d="M1091.672,519.042v-216.187h25.015c21.465,0,30.73,11.891,30.73,38.451v60.995c0,25.634-10.037,37.987-30.73,37.987h-6.023v78.754h-18.992Zm18.992-94.196h5.098c9.111,0,12.661-5.405,12.661-20.074v-66.091c0-14.979-3.55-20.383-12.661-20.383h-5.098v106.549Z"/>
        <path d="M1172.03,519.042l19.302-216.187h23.936l19.458,216.187h-19.304l-2.932-41.384h-18.84l-3.242,41.384h-18.377Zm10.654-226.996v-15.288h41.538v15.288h-41.538Zm11.736,171.096h16.987l-4.016-61.304c-1.235-19.148-2.007-35.825-2.778-63.313h-3.088c-.774,27.488-1.699,44.165-2.935,63.313l-4.17,61.304Z"/>
        <path d="M1265.359,519.042v-216.187h25.015c21.465,0,30.73,11.891,30.73,38.451v29.493c0,20.538-6.794,30.729-20.847,33.354v2.316c11.89,2.317,17.759,8.803,18.687,36.135l.925,27.485c.925,27.488,2.007,41.077,6.177,46.018l-.464,2.933h-20.383c-2.161-9.728-3.242-21.619-3.706-48.334l-.618-26.714c-.618-26.714-4.631-30.884-14.67-30.884h-1.85v105.931h-18.994Zm18.994-121.527h4.014c9.575,0,13.896-6.332,13.896-21.465v-35.825c0-15.906-4.321-21.927-13.896-21.927h-4.014v79.218Z"/>
      </g>
      <path d="M1356.681,519.042v-216.186h40.613v15.904h-21.621v75.974h18.376v15.442h-18.376v92.806h23.164v16.06h-42.156Zm.308-226.996v-15.288h41.541v15.288h-41.541Z"/>
      <path d="M1510.912,519.042v-216.186h18.994v216.186h-18.994Z"/>
      <path d="M1565.487,519.042v-216.186h40.61v15.904h-21.616v75.974h18.374v15.442h-18.374v92.806h23.162v16.06h-42.156Z"/>
      <path d="M1475.332,302.84h-39.075v15.906h20.235v172.026c0,10.193-2.778,15.134-9.109,15.134-6.177,0-8.801-4.941-8.801-15.134v-33.201l-18.994,4.17v29.185c0,20.23,8.801,30.112,27.795,30.112,19.148,0,27.949-9.883,27.949-30.112v-188.081h0v-.005Z"/>
    </g>
  </g>
  <path d="M1452.244,639.41c-115.094,0-208.73,93.636-208.73,208.73s93.636,208.732,208.73,208.732,208.732-93.638,208.732-208.732-93.638-208.73-208.732-208.73Zm192.094,199.636l-96.459-96.458c9.164-13.706,20.166-26.286,32.851-37.409,37.055,33.336,61.126,80.821,63.608,133.867Zm-183-182.998c39.87,1.866,76.599,15.924,106.543,38.529-12.112,10.894-22.774,23.034-31.856,36.157l-74.687-74.687Zm49.895,73.1h-117.977l58.988-58.988,58.989,58.988Zm-116.186,233.219v-167.588l8.432-2.357c20.659-5.778,37.161-4.13,49.046,4.889,11.871,9.007,18.957,25.691,18.957,44.628,0,61.189-74.917,119.264-75.674,119.845l-.761,.583Zm-1.981-169.001l-86.789,86.791-32.013-32.016,118.802-118.801v64.027Zm-14.427,37.632v121.52l-60.762-60.761,60.762-60.76Zm64.512,209.236c-16.671-.78-32.797-3.676-48.104-8.454v-39.651l48.104,48.105Zm9.093-14.112l-49.211-49.211,2.741-2.095c.835-.637,20.662-15.887,40.73-39.624,27.461-32.484,41.385-63.859,41.385-93.253,0-24.039-9.512-45.607-25.446-57.699-9.88-7.495-26.77-14.781-52.97-10.03v-28.655h117.207c-17.649,30.818-27.203,66.012-27.203,102.584,0,36.871,9.671,72.271,27.537,103.211l-74.771,74.771Zm83.771-60.566c9.083,13.117,19.735,25.262,31.855,36.156-29.942,22.6-66.667,36.656-106.533,38.522l74.678-74.678Zm-20.131-117.416c0-32.371,8.124-63.574,23.192-91.148l91.149,91.148-91.162,91.162c-15.061-27.554-23.179-58.743-23.179-91.162Zm-72.734-192.092l-182.999,182.998c4.625-98.825,84.174-178.374,182.999-182.998Zm-182.999,201.185l118.487,118.488v50.073c-66.971-27.851-114.927-92.49-118.487-168.561Zm320.539,133.902c-12.689-11.12-23.709-23.689-32.873-37.383l96.519-96.52c-2.483,53.065-26.57,100.564-63.647,133.902Z"/>
</svg>