<svg version="1.1" class="logo-iesaisties" xmlns="http://www.w3.org/2000/svg" xmlns:xlink="http://www.w3.org/1999/xlink" x="0px" y="0px" viewBox="0 0 178.6 51">
        <style type="text/css">
            .logo-iesaisties .st0{fill:#606578;}
            .logo-iesaisties .st1{fill:#FFFFFF;}
            .logo-iesaisties .st2{fill:#93B0B5;}
            .logo-iesaisties .st3{fill:#ED6A69;}
            .logo-iesaisties .st4{fill:#F39B9A;}
            .logo-iesaisties .st5{fill:#E8B107;}
            .logo-iesaisties .st6{fill:#DD7536;}
            .logo-iesaisties .st7{fill:#3A3A39;}
            .logo-iesaisties .st8{fill:#539F71;}
            .logo-iesaisties .st9{fill:#8AC9AD;}
        </style>
        <rect y="0" class="st0" width="178.6" height="51"></rect>
        <g>
            <g>
                <g>
                    <path class="st1" d="M40.2,32.1V19.6h2v12.5H40.2z"></path>
                    <path class="st1" d="M46.7,32.1V19.6h7v1.8h-5v3.1h5v1.8h-5v4.1h5v1.9L46.7,32.1L46.7,32.1z"></path>
                    <path class="st1" d="M56.8,29.6l1.6-0.7c0.3,1.1,1.1,1.7,2.4,1.7c0.6,0,1.1-0.2,1.4-0.5c0.3-0.3,0.6-0.8,0.6-1.4
                        c0-0.6-0.2-1-0.6-1.3c-0.2-0.2-0.7-0.4-1.6-0.9c-1.2-0.6-2.1-1.1-2.6-1.6c-0.6-0.6-0.9-1.3-0.9-2.3c0-1,0.3-1.9,1-2.5
                        c0.7-0.6,1.6-1,2.7-1c1.9,0,3.1,0.7,3.6,2.1L63,22.1c-0.5-0.7-1-1.1-1.9-1.1c-0.6,0-1,0.2-1.3,0.4c-0.3,0.2-0.5,0.6-0.5,1.1
                        c0,0.6,0.2,1,0.6,1.4c0.2,0.2,0.8,0.5,1.7,0.9c1.2,0.6,2,1,2.5,1.5c0.6,0.6,0.8,1.3,0.8,2.2c0,1.2-0.4,2.1-1.1,2.8
                        c-0.7,0.7-1.8,1-3.1,1C58.6,32.4,57.2,31.5,56.8,29.6z"></path>
                    <path class="st1" d="M76.9,32.1l-1.4-3.2h-5l-1.4,3.2h-2.2l6.2-13l6.1,13H76.9z M71.3,27.2h3.5l-1.3-2.9
                        c-0.2-0.3-0.3-0.8-0.5-1.4c-0.2,0.6-0.3,1-0.5,1.4L71.3,27.2z"></path>
                    <path class="st1" d="M81.9,32.1V19.6h2v12.5H81.9z"></path>
                    <path class="st1" d="M87.6,29.6l1.6-0.7c0.3,1.1,1.1,1.7,2.4,1.7c0.6,0,1.1-0.2,1.4-0.5c0.3-0.3,0.6-0.8,0.6-1.4
                        c0-0.6-0.2-1-0.6-1.3c-0.2-0.2-0.7-0.4-1.6-0.9c-1.2-0.6-2.1-1.1-2.6-1.6c-0.6-0.6-0.9-1.3-0.9-2.3c0-1,0.3-1.9,1-2.5
                        s1.6-1,2.7-1c1.9,0,3.1,0.7,3.6,2.1l-1.6,0.8c-0.5-0.7-1.1-1.1-1.9-1.1c-0.6,0-1,0.2-1.3,0.4c-0.3,0.3-0.5,0.6-0.5,1.1
                        c0,0.6,0.2,1,0.6,1.4c0.2,0.2,0.8,0.5,1.7,0.9c1.2,0.6,2,1,2.5,1.5c0.6,0.6,0.8,1.3,0.8,2.2c0,1.2-0.4,2.1-1.1,2.8s-1.8,1-3.1,1
                        C89.3,32.4,88,31.5,87.6,29.6z"></path>
                    <path class="st1" d="M103.5,21.2v10.9h-2V21.2h-3.4v-1.7h8.7v1.8L103.5,21.2L103.5,21.2z"></path>
                    <path class="st1" d="M109.9,32.1V19.6h2v12.5H109.9z"></path>
                    <path class="st1" d="M116.4,32.1V19.6h7v1.8h-5v3.1h5v1.8h-5v4.1h5v1.9L116.4,32.1L116.4,32.1z"></path>
                    <path class="st1" d="M126.6,29.6l1.6-0.7c0.3,1.1,1.1,1.7,2.4,1.7c0.6,0,1.1-0.2,1.4-0.5c0.3-0.3,0.6-0.8,0.6-1.4
                        c0-0.6-0.2-1-0.6-1.3c-0.2-0.2-0.7-0.4-1.6-0.9c-1.2-0.6-2.1-1.1-2.6-1.6c-0.6-0.6-0.9-1.3-0.9-2.3c0-1,0.3-1.9,1-2.5
                        c0.7-0.6,1.6-1,2.7-1c1.9,0,3.1,0.7,3.6,2.1l-1.6,0.8c-0.5-0.7-1.1-1.1-1.9-1.1c-0.6,0-1,0.2-1.3,0.4c-0.3,0.2-0.5,0.6-0.5,1.1
                        c0,0.6,0.2,1,0.6,1.4c0.2,0.2,0.8,0.5,1.7,0.9c1.2,0.6,2,1,2.5,1.5c0.6,0.6,0.8,1.3,0.8,2.2c0,1.2-0.4,2.1-1.1,2.8s-1.8,1-3.1,1
                        C128.3,32.4,127,31.5,126.6,29.6z"></path>
                    <path class="st1" d="M138.5,31.1c0-0.3,0.1-0.6,0.3-0.8c0.2-0.2,0.5-0.3,0.8-0.3c0.3,0,0.6,0.1,0.8,0.3c0.2,0.2,0.3,0.5,0.3,0.8
                        s-0.1,0.6-0.3,0.8c-0.2,0.2-0.5,0.3-0.8,0.3c-0.3,0-0.6-0.1-0.8-0.3C138.6,31.7,138.5,31.5,138.5,31.1z"></path>
                    <path class="st1" d="M145.2,32.1V19.6h2v10.8h4.6v1.9L145.2,32.1L145.2,32.1z"></path>
                    <path class="st1" d="M159,32.6l-5.6-13h2.1l2.8,6.7c0.3,0.8,0.6,1.4,0.6,2c0.2-0.6,0.4-1.3,0.7-2l2.8-6.7h2.1L159,32.6z"></path>
                </g>
            </g>
            <g>
                <rect x="16.1" y="18.9" class="st2" width="4.5" height="4.5"></rect>
                <rect x="20.6" y="18.9" class="st1" width="4.5" height="4.5"></rect>
                <rect x="29.7" y="14.3" class="st3" width="4.5" height="4.5"></rect>
                <rect x="16.1" y="23.4" class="st4" width="4.5" height="4.5"></rect>
                <rect x="20.6" y="23.4" class="st5" width="4.5" height="4.5"></rect>
                <rect x="25.2" y="23.4" class="st6" width="4.5" height="4.5"></rect>
                <rect x="16.1" y="27.9" class="st7" width="4.5" height="4.5"></rect>
                <rect x="20.7" y="27.9" class="st8" width="4.5" height="4.5"></rect>
                <rect x="25.2" y="28" class="st9" width="4.5" height="4.5"></rect>
            </g>
        </g>
</svg>
