<svg xmlns="http://www.w3.org/2000/svg" width="103" height="40" fill="none"><path fill="#54B20E" d="M85.77 19.297V33.72h-8.064V8.43h7.669v4.643h.28c.56-1.548 1.517-2.76 2.87-3.639 1.352-.889 2.963-1.333 4.832-1.333 1.78 0 3.325.4 4.634 1.202 1.32.79 2.342 1.898 3.067 3.325.737 1.416 1.1 3.074 1.089 4.973V33.72h-8.065V19.18c.011-1.405-.346-2.502-1.072-3.293-.714-.79-1.71-1.185-2.985-1.185-.846 0-1.594.187-2.243.56a3.713 3.713 0 0 0-1.484 1.564c-.34.68-.517 1.504-.528 2.47ZM58.16 33.72V8.43h7.833v4.61h.264c.461-1.668 1.215-2.909 2.259-3.72 1.044-.824 2.26-1.236 3.645-1.236.373 0 .758.028 1.154.083.396.043.764.115 1.105.214v6.997c-.385-.132-.89-.236-1.517-.313a13.455 13.455 0 0 0-1.65-.115c-.956 0-1.819.214-2.589.642a4.616 4.616 0 0 0-1.797 1.762c-.429.746-.643 1.624-.643 2.634V33.72h-8.065ZM44.979 22.804V8.43h8.048v25.29h-7.685v-4.71h-.264c-.56 1.548-1.517 2.778-2.87 3.689-1.341.9-2.963 1.35-4.865 1.35-1.726 0-3.243-.395-4.551-1.185-1.309-.79-2.326-1.894-3.051-3.31-.726-1.427-1.094-3.095-1.105-5.005v-8.052L36.7 8.43v14.538c.011 1.372.374 2.454 1.089 3.244.714.79 1.687 1.185 2.919 1.185.802 0 1.522-.175 2.16-.527a3.895 3.895 0 0 0 1.534-1.564c.385-.691.577-1.526.577-2.502ZM0 6.619V0h28.547v6.619H18.306v25.5L10.258 40V6.619H0Z"/><path fill="#54B20E" d="M0 6.619V0h28.547v6.619H0ZM44.978 22.804V8.43h8.048v25.29h-8.055c0-2.534.008-8.861.008-10.916ZM85.788 19.346V33.72H77.74V8.43h8.055c0 2.533-.007 8.86-.007 10.916ZM66.202 19.346V33.72h-8.048V8.43h8.055c0 2.533-.007 8.86-.007 10.916Z"/></svg>