<svg xmlns="http://www.w3.org/2000/svg" width="123" height="49" fill="none"><path fill="#FDFDFD" d="M103.079 23.19v17.334h-9.692V10.131h9.216v5.58h.337c.674-1.86 1.824-3.318 3.449-4.373 1.625-1.068 3.561-1.603 5.807-1.603 2.141 0 3.997.482 5.569 1.445 1.586.95 2.815 2.282 3.687 3.997.885 1.701 1.321 3.694 1.308 5.976v19.371h-9.692V23.052c.013-1.688-.416-3.008-1.288-3.957-.859-.95-2.055-1.425-3.588-1.425-1.017 0-1.915.224-2.695.673a4.467 4.467 0 0 0-1.784 1.88c-.409.818-.621 1.807-.634 2.968ZM69.897 40.525V10.13h9.414v5.54h.317c.555-2.004 1.46-3.495 2.715-4.471 1.255-.99 2.715-1.484 4.38-1.484.45 0 .912.033 1.388.099.475.053.918.138 1.328.257v8.41c-.463-.159-1.07-.284-1.824-.376a16.19 16.19 0 0 0-1.982-.139c-1.15 0-2.186.257-3.111.772a5.549 5.549 0 0 0-2.16 2.117c-.516.897-.774 1.952-.774 3.166v16.503h-9.691ZM54.056 27.405V10.131h9.672v30.393h-9.236v-5.66h-.317c-.674 1.86-1.824 3.338-3.449 4.433-1.612 1.082-3.56 1.623-5.847 1.623-2.074 0-3.898-.475-5.47-1.425-1.572-.95-2.794-2.275-3.666-3.977-.873-1.715-1.315-3.72-1.328-6.015v-9.677l9.691-9.695v17.472c.014 1.649.45 2.948 1.308 3.898.86.95 2.029 1.425 3.508 1.425.965 0 1.83-.211 2.597-.633a4.681 4.681 0 0 0 1.843-1.88c.463-.831.694-1.834.694-3.008ZM0 7.954V0h34.308v7.954H22V38.74l-9.672 9.472V7.954H0Z"/><path fill="#FDFDFD" d="M0 7.954V0h34.308v7.954H0ZM54.056 27.405V10.131h9.672v30.393H54.046c0-3.044.009-10.649.009-13.119ZM103.054 23.033v17.275h-9.672V9.914H103.062c0 3.045-.008 10.65-.008 13.12ZM79.562 23.25v17.274H69.89V10.131H79.57c0 3.045-.008 10.65-.008 13.12Z"/></svg>