<svg width="235" height="48" viewBox="0 0 235 48" fill="none" xmlns="http://www.w3.org/2000/svg">
<path fill-rule="evenodd" clip-rule="evenodd" d="M33.0039 46.7504C39.733 46.4647 45.1688 40.9606 45.2935 34.1197C45.423 27.0134 39.769 21.1378 32.6805 21.0075C29.3622 20.9464 26.3132 22.1534 23.9995 24.1827C23.9995 24.1827 7.91685 39.4532 2.21671 44.8672C1.89196 45.1731 1.78763 45.6452 1.95565 46.0583C2.11834 46.4718 2.51777 46.7431 2.9646 46.7433C10.8215 46.746 33.0039 46.7536 33.0039 46.7536L33.0039 46.7504Z" fill="#3F3D56"/>
<path fill-rule="evenodd" clip-rule="evenodd" d="M165.197 16.7483C166.016 17.4754 167.271 17.4459 168.055 16.6599C168.87 15.8433 168.87 14.5172 168.055 13.7008C167.674 13.3186 167.181 13.1152 166.683 13.0911C166.683 13.0911 163.893 13.0667 162.355 13.0536C162.193 13.0517 162.047 13.1491 161.987 13.2993C161.926 13.4488 161.962 13.6209 162.078 13.7333C163.186 14.8044 165.197 16.7487 165.197 16.7487L165.197 16.7483Z" fill="#3F3D56"/>
<path fill-rule="evenodd" clip-rule="evenodd" d="M12.5254 0.767173C5.79626 1.05287 0.360487 6.55699 0.23582 13.3979C0.106315 20.5042 5.76026 26.3797 12.8488 26.5101C16.1671 26.5712 19.216 25.3642 21.5298 23.3349C21.5298 23.3349 37.6124 8.06433 43.3126 2.65038C43.6373 2.34445 43.7417 1.87239 43.5737 1.4593C43.411 1.04577 43.0115 0.774501 42.5647 0.774279C34.7078 0.771582 12.5254 0.763969 12.5254 0.763969L12.5254 0.767173Z" fill="#3F3D56"/>
<path d="M64.8127 36.3017C68.9567 36.3017 71.7511 34.3506 71.7511 30.6057V30.5427C71.7511 27.2384 69.0824 26.074 65.723 25.1299C63.9334 24.595 62.96 24.2803 62.96 23.6194V23.5565C62.96 23.0844 63.431 22.7382 64.3417 22.7382C65.5053 22.7382 67.0893 23.1825 68.6301 23.9302C69.0442 24.1334 69.5441 23.9733 69.7636 23.567C70.1273 22.9012 70.6538 21.9271 71.012 21.2641C71.236 20.8494 71.0874 20.3312 70.6776 20.0994C68.8394 19.1125 66.5854 18.5527 64.4044 18.5527C60.4799 18.5527 57.5914 20.5669 57.5914 24.1859V24.2488C57.5914 27.679 60.26 28.8119 63.6195 29.693C65.4091 30.1965 66.3508 30.4798 66.3508 31.1407V31.2036C66.3508 31.8015 65.8801 32.1162 64.844 32.1162C63.3002 32.1162 61.4656 31.6066 59.7236 30.6089C59.3189 30.3733 58.8012 30.5034 58.5555 30.9023C58.1601 31.5354 57.5981 32.4478 57.2115 33.0754C56.9627 33.4793 57.083 34.0084 57.4817 34.2645C59.6868 35.6367 62.2369 36.3017 64.8127 36.3017Z" fill="#3F3D56"/>
<path d="M82.3944 36.3331C85.7228 36.3331 87.88 35.0844 89.4211 33.1653C89.5692 32.9802 89.6352 32.7425 89.6036 32.5074C89.5719 32.2724 89.4456 32.0606 89.2538 31.9214C88.5011 31.371 87.3158 30.5103 86.5951 29.9869C86.2529 29.7386 85.7822 29.7733 85.48 30.0692C84.699 30.8474 83.8749 31.298 82.7083 31.298C80.6988 31.298 79.3175 29.6301 79.3175 27.4273V27.3643C79.3175 25.2873 80.7302 23.5879 82.6456 23.5879C83.8122 23.5879 84.6306 24.0192 85.3323 24.7822C85.6332 25.1033 86.1265 25.1471 86.479 24.8841C87.2302 24.3274 88.442 23.4234 89.1944 22.8619C89.3813 22.7227 89.5044 22.5142 89.536 22.2832C89.568 22.0521 89.5059 21.818 89.3638 21.6333C87.9002 19.7508 85.7176 18.5527 82.6142 18.5527C77.2453 18.5527 73.5093 22.6124 73.5093 27.4273V27.4902C73.5093 32.3051 77.2767 36.3331 82.3944 36.3331Z" fill="#3F3D56"/>
<path d="M92.0645 35.0544C92.0645 35.2849 92.1558 35.5062 92.3186 35.6693C92.4812 35.8324 92.7019 35.9241 92.932 35.9241C94.0633 35.9241 96.0309 35.9241 97.162 35.9241C97.392 35.9241 97.6128 35.8324 97.7756 35.6693C97.9384 35.5062 98.0298 35.2849 98.0298 35.0544C98.0298 32.7573 98.0298 26.7034 98.0298 26.7034C98.0298 24.8467 99.0972 23.8396 100.541 23.8396C101.954 23.8396 102.927 24.8467 102.927 26.7034C102.927 26.7034 102.927 32.7573 102.927 35.0544C102.927 35.2849 103.019 35.5062 103.182 35.6693C103.344 35.8324 103.565 35.9241 103.795 35.9241C104.927 35.9241 106.894 35.9241 108.025 35.9241C108.255 35.9241 108.476 35.8324 108.639 35.6693C108.801 35.5062 108.893 35.2849 108.893 35.0544C108.893 32.4323 108.893 24.7837 108.893 24.7837C108.893 20.913 106.726 18.5213 103.116 18.5213C100.698 18.5213 99.1286 19.8116 98.0298 21.2277C98.0298 21.2277 98.0298 15.9456 98.0298 13.8209C98.0298 13.5902 97.9384 13.369 97.7756 13.2059C97.6128 13.0428 97.392 12.9512 97.162 12.9512C96.0309 12.9512 94.0633 12.9512 92.932 12.9512C92.7019 12.9512 92.4812 13.0428 92.3186 13.2059C92.1558 13.369 92.0645 13.5902 92.0645 13.8209C92.0645 17.4567 92.0645 31.4185 92.0645 35.0544Z" fill="#3F3D56"/>
<path d="M120.635 36.3332C126.098 36.3332 130.054 32.2737 130.054 27.4274V27.3644C130.054 22.5181 126.129 18.5215 120.698 18.5215C115.235 18.5215 111.279 22.581 111.279 27.4274V27.4903C111.279 32.3366 115.204 36.3332 120.635 36.3332ZM120.698 31.2667C118.594 31.2667 117.087 29.5043 117.087 27.4274V27.3644C117.087 25.3189 118.469 23.588 120.635 23.588C122.738 23.588 124.246 25.3504 124.246 27.4274V27.4903C124.246 29.5358 122.864 31.2667 120.698 31.2667Z" fill="#3F3D56"/>
<path d="M141.231 36.3332C146.694 36.3332 150.65 32.2737 150.65 27.4274V27.3644C150.65 22.5181 146.725 18.5215 141.294 18.5215C135.831 18.5215 131.875 22.581 131.875 27.4274V27.4903C131.875 32.3366 135.8 36.3332 141.231 36.3332ZM141.294 31.2667C139.19 31.2667 137.684 29.5043 137.684 27.4274V27.3644C137.684 25.3189 139.065 23.588 141.231 23.588C143.335 23.588 144.842 25.3504 144.842 27.4274V27.4903C144.842 29.5358 143.46 31.2667 141.294 31.2667Z" fill="#3F3D56"/>
<path d="M153.287 35.0544C153.287 35.2849 153.378 35.5062 153.541 35.6693C153.704 35.8324 153.925 35.9241 154.155 35.9241C155.286 35.9241 157.254 35.9241 158.385 35.9241C158.615 35.9241 158.836 35.8324 158.998 35.6693C159.161 35.5062 159.252 35.2849 159.252 35.0544C159.252 31.4185 159.252 17.4567 159.252 13.8209C159.252 13.5902 159.161 13.369 158.998 13.2059C158.836 13.0428 158.615 12.9512 158.385 12.9512C157.254 12.9512 155.286 12.9512 154.155 12.9512C153.925 12.9512 153.704 13.0428 153.541 13.2059C153.378 13.369 153.287 13.5902 153.287 13.8209C153.287 17.4567 153.287 31.4185 153.287 35.0544Z" fill="#3F3D56"/>
<path d="M162.706 35.0538C162.706 35.2844 162.797 35.5057 162.96 35.6688C163.123 35.8318 163.343 35.9235 163.573 35.9235C164.705 35.9235 166.672 35.9235 167.803 35.9235C168.033 35.9235 168.254 35.8318 168.417 35.6688C168.58 35.5057 168.671 35.2844 168.671 35.0538C168.671 32.1323 168.671 22.6897 168.671 19.7681C168.671 19.5375 168.58 19.3162 168.417 19.1532C168.254 18.99 168.033 18.8984 167.803 18.8984C166.672 18.8984 164.705 18.8984 163.573 18.8984C163.343 18.8984 163.123 18.99 162.96 19.1532C162.797 19.3162 162.706 19.5375 162.706 19.7681C162.706 22.6897 162.706 32.1323 162.706 35.0538Z" fill="#3F3D56"/>
<path d="M180.664 36.3332C186.127 36.3332 190.083 32.2737 190.083 27.4274V27.3644C190.083 22.5181 186.159 18.5215 180.727 18.5215C175.264 18.5215 171.308 22.581 171.308 27.4274V27.4903C171.308 32.3366 175.233 36.3332 180.664 36.3332ZM180.727 31.2667C178.623 31.2667 177.117 29.5043 177.117 27.4274V27.3644C177.117 25.3189 178.498 23.588 180.664 23.588C182.768 23.588 184.275 25.3504 184.275 27.4274V27.4903C184.275 29.5358 182.894 31.2667 180.727 31.2667Z" fill="#3F3D56"/>
<path d="M199.464 36.0709C199.52 36.2277 199.669 36.3322 199.835 36.3322C199.986 36.3322 200.173 36.3322 200.326 36.3322C200.495 36.3322 200.646 36.224 200.7 36.0632C201.3 34.2776 204.713 24.1316 205.553 21.634C205.58 21.5536 205.656 21.4995 205.74 21.4995C205.825 21.4995 205.9 21.5536 205.927 21.634C206.767 24.1316 210.18 34.2776 210.781 36.0632C210.835 36.224 210.985 36.3322 211.155 36.3322C211.307 36.3322 211.494 36.3322 211.646 36.3322C211.812 36.3322 211.96 36.2277 212.016 36.0709C212.717 34.1239 217.117 21.881 218.09 19.1742C218.134 19.0531 218.116 18.9183 218.042 18.8129C217.968 18.7076 217.847 18.6449 217.719 18.6449C217.543 18.6449 217.355 18.6449 217.208 18.6449C217.04 18.6449 216.891 18.7506 216.836 18.9086C216.201 20.7095 212.505 31.2008 211.615 33.7276C211.587 33.8074 211.511 33.8605 211.427 33.8595C211.342 33.8586 211.268 33.8038 211.242 33.7234C210.412 31.1877 206.978 20.6946 206.38 18.8669C206.327 18.7045 206.176 18.5947 206.005 18.5947C205.871 18.5947 205.71 18.5947 205.575 18.5947C205.405 18.5947 205.254 18.7045 205.201 18.8669C204.602 20.6946 201.169 31.1877 200.339 33.7234C200.313 33.8038 200.238 33.8586 200.154 33.8595C200.07 33.8605 199.994 33.8074 199.966 33.7276C199.076 31.2008 195.379 20.7095 194.745 18.9086C194.689 18.7506 194.54 18.6449 194.373 18.6449C194.2 18.6449 193.971 18.6449 193.762 18.6449C193.633 18.6449 193.513 18.7076 193.439 18.8129C193.365 18.9183 193.347 19.0531 193.391 19.1742C194.363 21.881 198.764 34.1239 199.464 36.0709Z" fill="#3F3D56"/>
<path d="M222.135 35.9371C222.135 36.0419 222.176 36.1424 222.25 36.2166C222.324 36.2907 222.424 36.3324 222.529 36.3324C222.692 36.3324 222.88 36.3324 223.042 36.3324C223.26 36.3324 223.436 36.1554 223.436 35.9371C223.436 34.7698 223.436 31.3469 223.436 30.1796C223.436 29.9613 223.613 29.7842 223.831 29.7842C224.967 29.7842 228.167 29.7842 228.167 29.7842C231.821 29.7842 235 27.8776 235 24.1896V24.1394C235 20.7524 232.347 18.7705 228.492 18.7705C228.492 18.7705 223.917 18.7705 222.529 18.7705C222.311 18.7705 222.135 18.9474 222.135 19.1658C222.135 21.5125 222.135 33.5903 222.135 35.9371ZM223.831 28.58C223.726 28.58 223.626 28.5384 223.552 28.4642C223.478 28.3901 223.436 28.2896 223.436 28.1847C223.436 26.7473 223.436 21.8074 223.436 20.37C223.436 20.2652 223.478 20.1647 223.552 20.0905C223.626 20.0164 223.726 19.9747 223.831 19.9747C225.004 19.9747 228.392 19.9747 228.392 19.9747C231.546 19.9747 233.698 21.4299 233.698 24.2147V24.2648C233.698 26.874 231.496 28.58 228.242 28.58C228.242 28.58 224.979 28.58 223.831 28.58Z" fill="#3F3D56"/>
</svg>
