<svg width="229" height="36" viewBox="0 0 229 36" fill="none" xmlns="http://www.w3.org/2000/svg">
<g clip-path="url(#clip0_1400_244)">
<path d="M48.0505 11.9683C49.1456 11.9683 50.0805 12.182 50.9353 12.636C51.7633 13.0901 52.4044 13.7312 52.8585 14.5593C53.3126 15.3873 53.5263 16.3222 53.5263 17.3907C53.5263 18.4591 53.2859 19.394 52.8318 20.1954C52.3777 20.9967 51.7099 21.6111 50.8819 22.0652C50.0271 22.5192 49.0388 22.7329 47.9436 22.7329H43.2424C43.1623 22.7329 43.1356 22.7596 43.1356 22.8398V30.4258C43.1356 30.6128 43.0554 30.6929 42.8685 30.6929H40.8384C40.6514 30.6929 40.5713 30.6128 40.5713 30.4258V12.2354C40.5713 12.0484 40.6514 11.9683 40.8384 11.9683H48.0505ZM47.7032 20.6495C48.6915 20.6495 49.4662 20.3556 50.0805 19.768C50.6682 19.1803 50.962 18.4057 50.962 17.4441C50.962 16.4558 50.6682 15.6811 50.0805 15.0668C49.4662 14.4791 48.6915 14.1853 47.7032 14.1853H43.2424C43.1623 14.1853 43.1356 14.212 43.1356 14.2921V20.5426C43.1356 20.6227 43.1623 20.6495 43.2424 20.6495H47.7032Z" fill="#3F3D56"/>
<path d="M57.8008 14.9596C57.2933 14.9596 56.8926 14.7993 56.5721 14.4788C56.2516 14.1582 56.0913 13.7576 56.0913 13.2501C56.0913 12.7425 56.2516 12.3419 56.5721 12.0213C56.8926 11.7008 57.2933 11.5405 57.8008 11.5405C58.3084 11.5405 58.709 11.7008 59.0296 12.0213C59.3501 12.3419 59.5104 12.7425 59.5104 13.2501C59.5104 13.7576 59.3501 14.1582 59.0296 14.4788C58.709 14.7993 58.3084 14.9596 57.8008 14.9596ZM56.7324 30.6659C56.5454 30.6659 56.4653 30.5857 56.4653 30.3987V17.3636C56.4653 17.1766 56.5454 17.0965 56.7324 17.0965H58.7624C58.9494 17.0965 59.0296 17.1766 59.0296 17.3636V30.3987C59.0296 30.5857 58.9494 30.6659 58.7624 30.6659H56.7324Z" fill="#3F3D56"/>
<path d="M74.0675 22.1984C74.1476 22.9196 74.1744 23.7476 74.1476 24.6558C74.1476 24.8428 74.0675 24.9229 73.8805 24.9229H65.3596C65.2795 24.9229 65.2528 24.9496 65.2528 25.0298C65.2528 25.6441 65.3062 26.0982 65.413 26.4188C65.6 27.14 66.0007 27.6742 66.615 28.0749C67.2027 28.4755 67.9506 28.6892 68.8588 28.6892C70.1677 28.6892 71.1827 28.155 71.9039 27.0598C71.984 26.8729 72.1176 26.8461 72.2511 26.9797L73.7737 27.9947C73.9072 28.1016 73.934 28.2084 73.8538 28.342C73.3463 29.1433 72.6518 29.7844 71.7436 30.2385C70.8087 30.6926 69.767 30.933 68.6184 30.933C67.3095 30.933 66.2144 30.6392 65.3329 30.0782C64.4514 29.5173 63.7836 28.6892 63.3295 27.6475C62.9022 26.6057 62.6885 25.3236 62.6885 23.8278C62.6885 22.5189 62.7953 21.5306 62.9823 20.8628C63.3028 19.6341 63.9439 18.6725 64.9055 17.9513C65.8671 17.2301 67.0424 16.8828 68.4047 16.8828C70.1944 16.8828 71.5566 17.3369 72.4381 18.2184C73.3196 19.1266 73.8805 20.4621 74.0675 22.1984ZM68.4047 19.0999C67.6301 19.0999 67.0157 19.2868 66.5082 19.6608C66.0007 20.0615 65.6801 20.569 65.4932 21.2101C65.3596 21.6107 65.2795 22.0915 65.2528 22.7059C65.2528 22.786 65.2795 22.8127 65.3596 22.8127H71.4765C71.5566 22.8127 71.5834 22.786 71.5834 22.7059C71.5566 22.1182 71.5032 21.6909 71.4231 21.397C71.2361 20.7025 70.8889 20.1416 70.3813 19.7142C69.8471 19.3135 69.1793 19.0999 68.4047 19.0999Z" fill="#3F3D56"/>
<path d="M77.647 30.6926C77.46 30.6926 77.3799 30.6124 77.3799 30.4255V12.2617C77.3799 12.0748 77.46 11.9946 77.647 11.9946H79.6771C79.864 11.9946 79.9442 12.0748 79.9442 12.2617V22.5456L79.9976 22.6257L80.0777 22.599L85.0193 17.2301C85.0995 17.1499 85.2063 17.0965 85.3399 17.0965H87.7172C87.824 17.0965 87.9042 17.1232 87.9309 17.1766C87.9576 17.2568 87.9309 17.3369 87.8507 17.417L84.405 21.397C84.3783 21.4772 84.3783 21.5573 84.3783 21.5573L88.4651 30.372L88.4918 30.4789C88.4918 30.6124 88.4117 30.6926 88.2514 30.6926H86.1145C85.9809 30.6926 85.8741 30.6124 85.8207 30.4789L82.642 23.2134C82.6153 23.1333 82.5619 23.1066 82.5085 23.1867L79.9976 25.9647C79.9709 26.0448 79.9442 26.0982 79.9442 26.0982V30.4255C79.9442 30.6124 79.864 30.6926 79.6771 30.6926H77.647Z" fill="#3F3D56"/>
<path d="M91.3228 30.6926C91.1358 30.6926 91.0557 30.6124 91.0557 30.4255V12.2617C91.0557 12.0748 91.1358 11.9946 91.3228 11.9946H93.3529C93.5398 11.9946 93.62 12.0748 93.62 12.2617V30.4255C93.62 30.6124 93.5398 30.6926 93.3529 30.6926H91.3228ZM89.64 35.6342C89.5331 35.6342 89.453 35.6075 89.4263 35.554C89.3729 35.4739 89.3729 35.3938 89.4263 35.3136L91.0023 32.4288C91.0557 32.2953 91.1625 32.2418 91.3228 32.2418H93.1125C93.2193 32.2418 93.2994 32.2685 93.3262 32.3487C93.3529 32.4021 93.3262 32.4822 93.2727 32.5624L91.3762 35.4472C91.2961 35.5808 91.1892 35.6342 91.0557 35.6342H89.64Z" fill="#3F3D56"/>
<path d="M105.427 17.3637C105.427 17.1768 105.507 17.0966 105.694 17.0966H107.697C107.884 17.0966 107.965 17.1768 107.965 17.3637V30.4256C107.965 30.6126 107.884 30.6927 107.697 30.6927H105.694C105.507 30.6927 105.427 30.6126 105.427 30.4256V29.4373L105.4 29.3571L105.293 29.4106C104.572 30.3989 103.477 30.8797 102.008 30.8797C101.126 30.8797 100.325 30.7194 99.6039 30.3722C98.856 30.0249 98.2684 29.5441 97.8143 28.8763C97.3602 28.2086 97.1465 27.4072 97.1465 26.4723V17.3637C97.1465 17.1768 97.2266 17.0966 97.4136 17.0966H99.4169C99.6039 17.0966 99.6841 17.1768 99.6841 17.3637V25.671C99.6841 26.6059 99.9245 27.3271 100.432 27.8613C100.913 28.3955 101.607 28.6627 102.489 28.6627C103.37 28.6627 104.091 28.3955 104.626 27.8346C105.16 27.3004 105.427 26.5792 105.427 25.671V17.3637ZM99.2567 14.9864C99.0697 14.9864 98.9896 14.9063 98.9896 14.7193V13.4639C98.9896 13.2769 99.0697 13.1968 99.2567 13.1968H106.148C106.335 13.1968 106.415 13.2769 106.415 13.4639V14.7193C106.415 14.9063 106.335 14.9864 106.148 14.9864H99.2567Z" fill="#3F3D56"/>
<path d="M116.565 30.8533C115.497 30.8533 114.562 30.693 113.761 30.3725C112.933 30.0519 112.318 29.5979 111.864 29.0369C111.41 28.476 111.196 27.8616 111.196 27.1938V26.9C111.196 26.713 111.276 26.6329 111.463 26.6329H113.387C113.574 26.6329 113.654 26.713 113.654 26.9V27.0336C113.654 27.5411 113.921 27.9685 114.482 28.3424C115.016 28.7164 115.711 28.9034 116.539 28.9034C117.34 28.9034 117.981 28.7164 118.488 28.3691C118.996 28.0486 119.236 27.5945 119.236 27.0603C119.236 26.5528 118.996 26.1521 118.542 25.885C118.088 25.6446 117.34 25.3775 116.298 25.0836C115.283 24.7898 114.428 24.496 113.761 24.2022C113.066 23.9083 112.478 23.5077 112.024 22.9467C111.544 22.4125 111.303 21.718 111.303 20.8632C111.303 19.6612 111.784 18.7263 112.719 18.0051C113.627 17.3106 114.882 16.9634 116.432 16.9634C117.473 16.9634 118.382 17.1236 119.183 17.4442C119.958 17.7914 120.572 18.2455 120.999 18.8332C121.427 19.4208 121.64 20.0886 121.64 20.8098V20.8899C121.64 21.0769 121.56 21.1571 121.373 21.1571H119.504C119.317 21.1571 119.236 21.0769 119.236 20.8899V20.8098C119.236 20.3023 118.969 19.8749 118.488 19.501C117.981 19.1537 117.286 18.9934 116.405 18.9934C115.63 18.9934 114.989 19.1537 114.508 19.4475C114.001 19.7414 113.761 20.1687 113.761 20.6763C113.761 21.1838 114.001 21.5844 114.482 21.8516C114.936 22.1187 115.711 22.4125 116.752 22.7063C117.794 23.0001 118.649 23.2673 119.343 23.5344C120.011 23.8282 120.599 24.2289 121.079 24.7631C121.56 25.324 121.801 26.0185 121.801 26.9C121.801 28.102 121.32 29.0636 120.385 29.7848C119.423 30.506 118.141 30.8533 116.565 30.8533Z" fill="#3F3D56"/>
<path d="M131.47 18.9398C131.47 19.1268 131.389 19.2069 131.202 19.2069H128.318C128.238 19.2069 128.211 19.2336 128.211 19.3137V26.3923C128.211 27.1402 128.371 27.6744 128.718 27.9949C129.066 28.3422 129.573 28.5024 130.294 28.5024H131.069C131.256 28.5024 131.336 28.5826 131.336 28.7696V30.4257C131.336 30.6126 131.256 30.6928 131.069 30.6928C130.508 30.7195 130.081 30.7462 129.84 30.7462C128.478 30.7462 127.463 30.5058 126.795 29.9983C126.101 29.5175 125.753 28.6093 125.753 27.3004V19.3137C125.753 19.2336 125.727 19.2069 125.647 19.2069H124.017C123.83 19.2069 123.75 19.1268 123.75 18.9398V17.3638C123.75 17.1768 123.83 17.0967 124.017 17.0967H125.647C125.727 17.0967 125.753 17.07 125.753 16.9899V13.8379C125.753 13.6509 125.833 13.5708 126.02 13.5708H127.944C128.131 13.5708 128.211 13.6509 128.211 13.8379V16.9899C128.211 17.07 128.238 17.0967 128.318 17.0967H131.202C131.389 17.0967 131.47 17.1768 131.47 17.3638V18.9398Z" fill="#3F3D56"/>
<path d="M139.59 16.8828C140.685 16.8828 141.62 17.0698 142.448 17.4438C143.25 17.8444 143.864 18.3786 144.318 19.0464C144.745 19.7409 144.959 20.5156 144.959 21.397V30.4255C144.959 30.6124 144.879 30.6926 144.692 30.6926H142.662C142.475 30.6926 142.395 30.6124 142.395 30.4255V29.4639C142.395 29.3837 142.341 29.357 142.261 29.4104C141.807 29.8912 141.246 30.2652 140.578 30.5056C139.911 30.7727 139.163 30.9063 138.335 30.9063C137.026 30.9063 135.931 30.559 135.076 29.8912C134.194 29.2235 133.767 28.2351 133.767 26.8729C133.767 25.4839 134.248 24.3887 135.236 23.5874C136.198 22.8127 137.56 22.4121 139.296 22.4121H142.288C142.368 22.4121 142.395 22.3854 142.395 22.3052V21.584C142.395 20.8094 142.181 20.195 141.727 19.7409C141.273 19.3135 140.578 19.0999 139.644 19.0999C138.896 19.0999 138.281 19.2601 137.827 19.5272C137.346 19.8211 137.053 20.2217 136.946 20.7292C136.892 20.9162 136.785 20.9964 136.625 20.9697L134.462 20.6758C134.275 20.6491 134.194 20.569 134.221 20.4621C134.355 19.4204 134.916 18.5389 135.904 17.8711C136.892 17.2033 138.121 16.8828 139.59 16.8828ZM138.896 28.7427C139.831 28.7427 140.659 28.5023 141.353 27.9947C142.048 27.4872 142.395 26.8729 142.395 26.0982V24.5223C142.395 24.4421 142.368 24.4154 142.288 24.4154H139.777C138.735 24.4154 137.881 24.6291 137.266 25.0298C136.652 25.4304 136.331 26.0181 136.331 26.7393C136.331 27.4071 136.572 27.8879 137.053 28.2351C137.507 28.5824 138.121 28.7427 138.896 28.7427Z" fill="#3F3D56"/>
<path d="M162.562 16.9097C163.924 16.9097 164.993 17.3103 165.767 18.1117C166.542 18.9397 166.943 20.0616 166.943 21.504V30.4256C166.943 30.6126 166.862 30.6927 166.675 30.6927H164.672C164.485 30.6927 164.405 30.6126 164.405 30.4256V22.0382C164.405 21.1568 164.165 20.4356 163.684 19.9013C163.176 19.3938 162.535 19.1267 161.707 19.1267C160.879 19.1267 160.211 19.3938 159.704 19.9013C159.196 20.4089 158.929 21.1034 158.929 21.9848V30.4256C158.929 30.6126 158.849 30.6927 158.662 30.6927H156.659C156.472 30.6927 156.392 30.6126 156.392 30.4256V22.0382C156.392 21.1568 156.151 20.4356 155.67 19.9013C155.163 19.3938 154.522 19.1267 153.694 19.1267C152.866 19.1267 152.225 19.3938 151.744 19.9013C151.236 20.4089 150.996 21.1034 150.996 21.9848V30.4256C150.996 30.6126 150.916 30.6927 150.729 30.6927H148.699C148.512 30.6927 148.432 30.6126 148.432 30.4256V17.3638C148.432 17.1768 148.512 17.0966 148.699 17.0966H150.729C150.916 17.0966 150.996 17.1768 150.996 17.3638V18.2719L151.049 18.3521L151.129 18.3254C151.904 17.3905 153.053 16.9097 154.549 16.9097C155.457 16.9097 156.231 17.0966 156.872 17.4172C157.513 17.7644 158.021 18.2987 158.368 18.9664C158.422 19.0466 158.475 19.0466 158.529 18.9664C158.956 18.2719 159.517 17.7644 160.238 17.4172C160.933 17.0699 161.707 16.9097 162.562 16.9097Z" fill="#3F3D56"/>
<path d="M170.549 30.6927C170.362 30.6927 170.282 30.6126 170.282 30.4256V17.3637C170.282 17.1768 170.362 17.0966 170.549 17.0966H172.579C172.766 17.0966 172.846 17.1768 172.846 17.3637V30.4256C172.846 30.6126 172.766 30.6927 172.579 30.6927H170.549ZM168.145 14.9864C167.958 14.9864 167.878 14.9063 167.878 14.7193V13.4639C167.878 13.2769 167.958 13.1968 168.145 13.1968H175.037C175.224 13.1968 175.304 13.2769 175.304 13.4639V14.7193C175.304 14.9063 175.224 14.9864 175.037 14.9864H168.145Z" fill="#3F3D56"/>
<path d="M187.377 20.6224C187.671 21.5306 187.805 22.599 187.805 23.8545C187.805 25.19 187.645 26.3386 187.297 27.2735C186.897 28.4221 186.282 29.3303 185.454 29.9447C184.599 30.5857 183.531 30.9063 182.249 30.9063C181.634 30.9063 181.047 30.7727 180.513 30.5323C179.978 30.2919 179.524 29.9447 179.124 29.4906L179.043 29.4639L178.99 29.544V30.4255C178.99 30.6124 178.91 30.6926 178.723 30.6926H176.693C176.506 30.6926 176.426 30.6124 176.426 30.4255V12.2617C176.426 12.0748 176.506 11.9946 176.693 11.9946H178.723C178.91 11.9946 178.99 12.0748 178.99 12.2617V18.2184L179.043 18.2985L179.124 18.2718C179.524 17.8177 179.978 17.4705 180.539 17.2301C181.074 16.9897 181.634 16.8828 182.249 16.8828C183.584 16.8828 184.68 17.2033 185.534 17.8711C186.389 18.5389 187.003 19.4471 187.377 20.6224ZM184.546 27.2201C185 26.392 185.214 25.2702 185.214 23.9079C185.214 22.4388 184.92 21.2635 184.359 20.382C183.852 19.5272 183.05 19.0998 181.982 19.0998C180.993 19.0998 180.219 19.5539 179.711 20.4621C179.257 21.2902 179.017 22.4121 179.017 23.8812C179.017 25.3503 179.23 26.4722 179.658 27.2468C180.192 28.2084 180.967 28.6892 182.008 28.6892C183.184 28.6892 184.039 28.2084 184.546 27.2201Z" fill="#3F3D56"/>
<path d="M196.139 16.8828C197.234 16.8828 198.169 17.0698 198.997 17.4438C199.798 17.8444 200.413 18.3786 200.867 19.0464C201.294 19.7409 201.508 20.5156 201.508 21.397V30.4255C201.508 30.6124 201.428 30.6926 201.241 30.6926H199.211C199.024 30.6926 198.944 30.6124 198.944 30.4255V29.4639C198.944 29.3837 198.89 29.357 198.81 29.4104C198.356 29.8912 197.795 30.2652 197.127 30.5056C196.46 30.7727 195.712 30.9063 194.884 30.9063C193.575 30.9063 192.48 30.559 191.625 29.8912C190.743 29.2235 190.316 28.2351 190.316 26.8729C190.316 25.4839 190.797 24.3887 191.785 23.5874C192.747 22.8127 194.109 22.4121 195.845 22.4121H198.837C198.917 22.4121 198.944 22.3854 198.944 22.3052V21.584C198.944 20.8094 198.73 20.195 198.276 19.7409C197.822 19.3135 197.127 19.0999 196.192 19.0999C195.444 19.0999 194.83 19.2601 194.376 19.5272C193.895 19.8211 193.601 20.2217 193.495 20.7292C193.441 20.9162 193.334 20.9964 193.174 20.9697L191.01 20.6758C190.823 20.6491 190.743 20.569 190.77 20.4621C190.904 19.4204 191.465 18.5389 192.453 17.8711C193.441 17.2033 194.67 16.8828 196.139 16.8828ZM195.444 28.7427C196.379 28.7427 197.207 28.5023 197.902 27.9947C198.596 27.4872 198.944 26.8729 198.944 26.0982V24.5223C198.944 24.4421 198.917 24.4154 198.837 24.4154H196.326C195.284 24.4154 194.429 24.6291 193.815 25.0298C193.201 25.4304 192.88 26.0181 192.88 26.7393C192.88 27.4071 193.121 27.8879 193.601 28.2351C194.056 28.5824 194.67 28.7427 195.444 28.7427Z" fill="#3F3D56"/>
<path d="M206.716 30.693C206.208 30.693 205.808 30.5327 205.487 30.2122C205.167 29.8916 205.006 29.491 205.006 28.9835C205.006 28.4759 205.167 28.0753 205.487 27.7547C205.808 27.4342 206.208 27.2739 206.716 27.2739C207.223 27.2739 207.624 27.4342 207.945 27.7547C208.265 28.0753 208.425 28.4759 208.425 28.9835C208.425 29.491 208.265 29.8916 207.945 30.2122C207.624 30.5327 207.223 30.693 206.716 30.693Z" fill="#3F3D56"/>
<path d="M212.592 30.6926C212.405 30.6926 212.325 30.6124 212.325 30.4255V12.2617C212.325 12.0748 212.405 11.9946 212.592 11.9946H214.622C214.809 11.9946 214.889 12.0748 214.889 12.2617V30.4255C214.889 30.6124 214.809 30.6926 214.622 30.6926H212.592Z" fill="#3F3D56"/>
<path d="M222.182 30.6928C222.022 30.6928 221.915 30.6126 221.862 30.4791L217.508 17.3905L217.481 17.2837C217.481 17.1501 217.561 17.0967 217.721 17.0967H219.965C220.125 17.0967 220.232 17.1768 220.286 17.3104L223.224 26.9799L223.304 27.0333L223.384 26.9799L226.296 17.3104C226.349 17.1768 226.456 17.0967 226.616 17.0967L228.86 17.1234C229.047 17.1234 229.127 17.2302 229.074 17.4172L224.746 30.4791C224.693 30.6126 224.586 30.6928 224.426 30.6928H222.182Z" fill="#3F3D56"/>
<path fill-rule="evenodd" clip-rule="evenodd" d="M2.82559 17.489C1.06989 15.6266 0.00292969 13.124 0.00292969 10.379C0.00292969 4.64628 4.64922 0 10.3819 0C16.1146 0 20.7609 4.64628 20.7609 10.379C20.7609 13.124 19.6937 15.6266 17.938 17.489C16.0465 15.4714 13.3598 14.2201 10.3819 14.2201C7.40402 14.2201 4.71708 15.4714 2.82559 17.489Z" fill="#3F3D56"/>
<path fill-rule="evenodd" clip-rule="evenodd" d="M18.4206 2.8246C20.283 1.06891 22.7856 0.00195313 25.5307 0.00195313C31.2634 0.00195313 35.9097 4.64823 35.9097 10.3809C35.9097 16.1136 31.2634 20.7599 25.5307 20.7599C22.7856 20.7599 20.283 19.6927 18.4206 17.937C20.4382 16.0455 21.6895 13.3588 21.6895 10.3809C21.6895 7.40302 20.4382 4.7161 18.4206 2.8246Z" fill="#3F3D56"/>
<path fill-rule="evenodd" clip-rule="evenodd" d="M33.087 18.3347C34.8427 20.1971 35.9097 22.6997 35.9097 25.4448C35.9097 31.1775 31.2634 35.8237 25.5307 35.8237C19.798 35.8237 15.1517 31.1775 15.1517 25.4448C15.1517 22.6997 16.2189 20.1971 17.9746 18.3347C19.8661 20.3523 22.5528 21.6036 25.5307 21.6036C28.5086 21.6036 31.1955 20.3523 33.087 18.3347Z" fill="#3F3D56"/>
<path fill-rule="evenodd" clip-rule="evenodd" d="M17.489 33.0006C15.6267 34.7563 13.1241 35.8232 10.379 35.8232C4.64629 35.8232 0 31.177 0 25.4443C0 19.7116 4.64629 15.0653 10.379 15.0653C13.1241 15.0653 15.6267 16.1325 17.489 17.8882C15.4715 19.7797 14.2201 22.4664 14.2201 25.4443C14.2201 28.4222 15.4715 31.1091 17.489 33.0006Z" fill="#3F3D56"/>
<path d="M12.6018 23.6481C12.6018 21.8362 11.2722 20.3423 9.63782 20.3423C8.00347 20.3423 6.67383 21.8362 6.67383 23.6481C6.67383 24.4789 6.8133 25.2995 6.94802 26.0929C7.07801 26.8598 7.21274 27.6527 7.21274 28.4275C7.21274 29.5804 8.05898 30.5384 9.09891 30.5384C10.1388 30.5384 10.9851 29.5804 10.9851 28.4275C10.9851 28.2866 10.9722 28.1451 10.9469 28.0065C10.8154 27.2942 11.2885 26.4651 11.7337 25.9715C12.2934 25.3511 12.6018 24.5258 12.6018 23.6481ZM10.9717 25.1268L10.5906 24.7044C10.9211 24.3377 11.053 23.8304 10.9527 23.3123C10.8438 22.7505 10.408 22.2852 9.89306 22.1805C9.02185 22.006 8.29055 22.746 8.29055 23.6481C8.29055 23.7475 8.29317 23.8479 8.29819 23.9494C8.83025 23.9783 9.32364 24.2525 9.66335 24.7119C10.3298 25.6134 10.0131 26.5942 10.0125 26.6798C9.92358 27.1731 9.52941 27.5314 9.07549 27.5314C8.60869 27.5314 8.21212 27.1548 8.1324 26.6361C8.09319 26.3785 8.05004 26.1238 8.00714 25.8721C7.87557 25.0979 7.75164 24.3671 7.75164 23.6481C7.75164 22.351 8.81245 21.3525 9.99016 21.5929C10.7251 21.742 11.3237 22.3826 11.4795 23.1869C11.6172 23.8963 11.4272 24.6215 10.9717 25.1268Z" fill="#FDFDFD"/>
<path d="M31.5316 9.75289C31.4601 9.63299 31.3398 9.56691 31.1907 9.56691C30.9139 9.5679 30.5808 9.67766 30.3214 9.85318C30.0821 10.0151 29.7352 10.3151 29.4425 10.8268C29.3875 10.9227 29.2974 10.9878 29.2009 11.0033C29.2006 10.981 29.2007 10.9556 29.2007 10.9317C29.2007 10.8802 29.2009 10.8191 29.1987 10.7517V7.0761C29.1987 6.70979 28.9008 6.41189 28.5345 6.41189C28.1682 6.41189 27.8703 6.70979 27.8703 7.0761V9.64993C27.8703 9.6956 27.8329 9.73296 27.7873 9.73296C27.7416 9.73296 27.7042 9.6956 27.7042 9.64993V5.91373C27.7042 5.54741 27.4063 5.24951 27.04 5.24951C26.6737 5.24951 26.3758 5.54741 26.3758 5.91373V9.64993C26.3758 9.6956 26.3384 9.73296 26.2928 9.73296C26.2471 9.73296 26.2098 9.6956 26.2098 9.64993V6.66097C26.2098 6.34048 25.9491 6.07978 25.6286 6.07978C25.3081 6.07978 25.0474 6.34048 25.0474 6.66097V9.98204C25.0474 10.0277 25.01 10.0651 24.9644 10.0651C24.9187 10.0651 24.8813 10.0277 24.8813 9.98204V7.90637C24.8813 7.58589 24.6206 7.32518 24.2985 7.32518C23.978 7.32518 23.7173 7.58589 23.7173 7.90637L23.7176 12.4225C23.8784 14.7445 25.3026 15.0576 26.6747 15.0576C27.8115 15.0576 28.8326 14.4937 29.3361 13.5924C29.4008 13.4878 29.576 13.2124 29.7837 12.886C30.3032 12.0702 30.7382 11.3847 30.8025 11.2628C30.9458 10.9915 31.1057 10.7794 31.2648 10.6496C31.4087 10.532 31.4967 10.3821 31.5683 10.2504C31.6052 10.182 31.6374 9.9304 31.5316 9.75289Z" fill="#FDFDFD"/>
<path d="M10.3873 5.72461C7.63355 5.72461 5.40039 8.74402 5.40039 8.74402C5.40039 8.74402 7.63235 11.7634 10.3861 11.7634C13.1398 11.7634 15.3717 8.74402 15.3717 8.74402C15.3717 8.74402 13.141 5.72461 10.3873 5.72461ZM10.3679 11.0907C9.07201 11.0907 8.02125 10.04 8.02125 8.74402C8.02125 7.44809 9.07201 6.39733 10.3679 6.39733C11.6639 6.39733 12.7146 7.44809 12.7146 8.74402C12.7146 10.04 11.6639 11.0907 10.3679 11.0907Z" fill="#FDFDFD"/>
<path d="M10.3659 9.98227C11.0496 9.98227 11.6039 9.42801 11.6039 8.74431C11.6039 8.0606 11.0496 7.50635 10.3659 7.50635C9.68218 7.50635 9.12793 8.0606 9.12793 8.74431C9.12793 9.42801 9.68218 9.98227 10.3659 9.98227Z" fill="#FDFDFD"/>
<path d="M29.9441 26.0514C30.062 25.6843 29.9575 25.2213 29.6373 24.8628C29.4984 24.7076 29.3364 24.5897 29.1658 24.513C29.1169 24.4325 29.0584 24.3539 28.9923 24.2791C28.7057 23.958 28.327 23.7854 27.9791 23.7835C27.7356 23.5966 27.4068 23.4547 27.033 23.3963C26.7387 23.3503 26.455 23.3618 26.2067 23.4193C25.9911 23.3253 25.7371 23.287 25.4706 23.3206C25.1936 23.356 24.9482 23.4634 24.7603 23.6177C24.4632 23.4835 24.0807 23.4758 23.7165 23.6263C23.403 23.7557 23.1624 23.9762 23.0263 24.2302C22.7828 24.2839 22.5365 24.4133 22.3266 24.6146C22.0285 24.9002 21.8713 25.2664 21.8722 25.6C21.5099 25.8012 21.2799 26.1473 21.2962 26.5163C21.1993 26.6639 21.1265 26.8374 21.0881 27.0282C21.022 27.3589 21.0719 27.679 21.206 27.9321C21.1965 28.4909 21.5099 28.973 21.9815 29.067C22.0122 29.0727 22.0429 29.0775 22.0735 29.0804C22.0572 29.1964 22.0591 29.3143 22.0831 29.4322C22.2183 30.1137 23.0004 30.5326 23.8305 30.3677C23.8679 30.36 23.9053 30.3514 23.9417 30.3418C24.0654 30.5402 24.3223 30.4549 24.3223 30.4549V31.1892C24.3223 31.2678 24.352 31.3425 24.4066 31.4001L24.813 31.8285C24.9079 31.9292 25.0766 31.8611 25.0766 31.7231V30.893C25.1015 30.1444 25.3767 29.7744 25.6115 29.6335C25.9278 29.4427 25.923 29.0459 25.9211 28.9011C26.1703 29.0325 26.5643 29.1072 26.894 29.0699C28.3817 28.8983 28.4593 27.8976 28.5082 27.7337C28.9424 27.7663 29.3411 27.5822 29.5137 27.2285C29.5376 27.1787 29.5568 27.1269 29.5702 27.0751C29.714 26.9898 29.8319 26.8681 29.9067 26.7147C30.0083 26.5077 30.015 26.2738 29.9441 26.0514Z" fill="#FDFDFD"/>
</g>
<defs>
<clipPath id="clip0_1400_244">
<rect width="229" height="36" fill="white"/>
</clipPath>
</defs>
</svg>
